<svg width="30" height="30" viewBox="0 0 30 30" fill="none" xmlns="http://www.w3.org/2000/svg">
<path d="M18.75 11.25H21.25V13.75H18.75V11.25ZM21.25 6.25H18.75V8.75H21.25V6.25ZM13.75 18.75H16.25V16.25H13.75V18.75ZM16.25 6.25H13.75V8.75H16.25V6.25ZM13.75 13.75H16.25V11.25H13.75V13.75ZM11.25 6.25H8.75V8.75H11.25V6.25ZM11.25 11.25H8.75V13.75H11.25V11.25ZM18.1875 26.25H16.25V21.875H13.75V26.25H6.25V3.75H23.75V13.7875C24.6375 13.8625 25.4875 14.1375 26.25 14.5375V1.25H3.75V28.75H19.8875C19.375 28.05 18.75 27.2 18.1875 26.25ZM8.75 23.75H11.25V21.25H8.75V23.75ZM11.25 16.25H8.75V18.75H11.25V16.25ZM27.5 20.625C27.5 23.875 23.125 28.75 23.125 28.75C23.125 28.75 18.75 23.875 18.75 20.625C18.75 18.25 20.75 16.25 23.125 16.25C25.5 16.25 27.5 18.25 27.5 20.625ZM24.625 20.75C24.625 20 23.875 19.25 23.125 19.25C22.375 19.25 21.625 19.875 21.625 20.75C21.625 21.5 22.25 22.25 23.125 22.25C24 22.25 24.75 21.5 24.625 20.75Z" fill="white"/>
</svg>
