<svg width="100" height="100" viewBox="0 0 100 100" fill="none" xmlns="http://www.w3.org/2000/svg">
<path d="M87.5 27.0833V58.3333H79.1666V31.25L58.3333 16.6667L37.5 31.25V37.5H29.1666V27.0833L58.3333 6.25L87.5 27.0833ZM64.5833 29.1667H60.4166V33.3333H64.5833V29.1667ZM56.25 29.1667H52.0833V33.3333H56.25V29.1667ZM64.5833 37.5H60.4166V41.6667H64.5833V37.5ZM56.25 37.5H52.0833V41.6667H56.25V37.5ZM79.1666 66.6667H70.8333C70.8333 61.6667 67.7083 57.1667 63.0416 55.4167L37.375 45.8333H4.16663V91.6667H29.1666V85.6667L58.3333 93.75L91.6666 83.3333V79.1667C91.6666 72.25 86.0833 66.6667 79.1666 66.6667ZM12.5 83.3333V54.1667H20.8333V83.3333H12.5ZM58.2083 85.0417L29.1666 77V54.1667H35.875L60.125 63.2083C61.5416 63.75 62.5 65.125 62.5 66.6667C62.5 66.6667 54.2083 66.4583 52.9166 66.0417L43 62.75L40.375 70.6667L50.2916 73.9583C52.4166 74.6667 54.625 75.0417 56.875 75.0417H79.1666C80.7916 75.0417 82.25 76 82.9166 77.375L58.2083 85.0417Z" fill="#316499"/>
</svg>
